<svg width="20" height="20" viewBox="0 0 20 20" fill="none" xmlns="http://www.w3.org/2000/svg">
<g clip-path="url(#clip0_56_461)">
<path d="M2.11283 13.1033C2.52053 12.7835 3.10888 12.8518 3.42869 13.2595L5.86024 16.3527V0.938226C5.86024 0.420668 6.28015 0.00076179 6.79771 0.00076181C7.31527 0.000761829 7.73517 0.420668 7.73517 0.938226V19.0625C7.73517 19.4629 7.48127 19.8169 7.10287 19.9487C7.00522 19.9829 6.90024 20 6.79771 20C6.51451 20 6.24109 19.8731 6.06043 19.6411L1.95414 14.4192C1.63433 14.0139 1.70513 13.4231 2.11283 13.1033ZM12.3834 0.0520294C12.7594 -0.0798015 13.1793 0.0447055 13.4259 0.359635L17.5322 5.5816C17.852 5.98686 17.7812 6.57766 17.3735 6.89747C16.9682 7.21728 16.3774 7.14893 16.0576 6.74123L13.6261 3.64808V19.0625C13.6261 19.5801 13.2062 20 12.6886 20C12.171 20 11.7511 19.5801 11.7511 19.0625V0.938226C11.7536 0.540292 12.0075 0.18386 12.3834 0.0520294V0.0520294Z" fill="#686868"/>
</g>
<defs>
<clipPath id="clip0_56_461">
<rect width="20" height="20" fill="white"/>
</clipPath>
</defs>
</svg>
