<svg width="18" height="18" viewBox="0 0 18 18" fill="none" xmlns="http://www.w3.org/2000/svg">
<path d="M9.375 1.125C9.42425 1.125 9.47301 1.1347 9.51851 1.15355C9.564 1.17239 9.60534 1.20001 9.64017 1.23483C9.67499 1.26966 9.70261 1.311 9.72146 1.35649C9.7403 1.40199 9.75 1.45075 9.75 1.5V2.25C9.75 2.29925 9.7403 2.34801 9.72146 2.39351C9.70261 2.439 9.67499 2.48034 9.64017 2.51517C9.60534 2.54999 9.564 2.57761 9.51851 2.59645C9.47301 2.6153 9.42425 2.625 9.375 2.625H3V15.375H9.375C9.375 15.375 9.47301 15.3847 9.51851 15.4035C9.564 15.4224 9.60534 15.45 9.64017 15.4848C9.67499 15.5197 9.70261 15.561 9.72146 15.6065C9.7403 15.652 9.75 15.7008 9.75 15.75V16.5C9.75 16.5492 9.7403 16.598 9.72146 16.6435C9.70261 16.689 9.67499 16.7303 9.64017 16.7652C9.60534 16.8 9.564 16.8276 9.51851 16.8465C9.47301 16.8653 9.42425 16.875 9.375 16.875H3C2.61516 16.875 2.24504 16.7271 1.9662 16.4619C1.68735 16.1966 1.52112 15.8344 1.50187 15.45L1.5 15.375V2.625C1.5 2.24016 1.64791 1.87004 1.91315 1.5912C2.17838 1.31235 2.54064 1.14612 2.925 1.12687L3 1.125H9.375ZM12.7954 4.98488L16.0151 8.20463C16.217 8.40653 16.3345 8.67764 16.3439 8.963C16.3533 9.24836 16.2539 9.52662 16.0658 9.74137L16.0151 9.79537L12.7954 13.0151C12.7251 13.0854 12.6297 13.1249 12.5303 13.1249C12.4308 13.1249 12.3354 13.0854 12.2651 13.0151L11.7349 12.4849C11.6646 12.4146 11.6251 12.3192 11.6251 12.2198C11.6251 12.1203 11.6646 12.0249 11.7349 11.9546L13.9388 9.75H6.375C6.32575 9.75 6.27699 9.7403 6.23149 9.72146C6.186 9.70261 6.14466 9.67499 6.10984 9.64017C6.07501 9.60534 6.04739 9.564 6.02855 9.51851C6.0097 9.47301 6 9.42425 6 9.375V8.625C6 8.57575 6.0097 8.52699 6.02855 8.48149C6.04739 8.436 6.07501 8.39466 6.10984 8.35984C6.14466 8.32501 6.186 8.29739 6.23149 8.27855C6.27699 8.2597 6.32575 8.25 6.375 8.25H13.9388L11.7349 6.04537C11.6646 5.97505 11.6251 5.87969 11.6251 5.78025C11.6251 5.68081 11.6646 5.58545 11.7349 5.51512L12.2651 4.98488C12.3354 4.91457 12.4308 4.87508 12.5303 4.87508C12.6297 4.87508 12.7251 4.91457 12.7954 4.98488Z" fill="#D57272"/>
</svg>
