<svg width="50" height="50" viewBox="0 0 50 50" fill="none" xmlns="http://www.w3.org/2000/svg">
<path d="M36.2006 19.9159L20.0691 39.1407C19.9892 39.2359 19.8845 39.307 19.7665 39.346L14.8812 40.9652C14.4077 41.1222 13.9348 40.7252 14.0074 40.2319L14.7535 35.14C14.7714 35.0169 14.8233 34.9014 14.9034 34.8063L31.0349 15.5815C31.2728 15.2979 31.6956 15.261 31.9792 15.4989L36.1179 18.972C36.4012 19.2095 36.4384 19.6323 36.2006 19.9159V19.9159ZM41.5218 13.5742L39.1647 16.3831C38.9268 16.6667 38.5041 16.7036 38.2204 16.4657L34.0817 12.9926C33.798 12.7547 33.7612 12.332 33.999 12.0483L36.3562 9.23944C36.594 8.95579 37.0168 8.91895 37.3004 9.15681L41.4392 12.6299C41.7228 12.8678 41.7597 13.2906 41.5218 13.5742V13.5742Z" fill="black"/>
</svg>
