<svg width="34" height="34" viewBox="0 0 34 34" fill="none" xmlns="http://www.w3.org/2000/svg">
<g clip-path="url(#clip0_235_6)">
<path d="M11.9618 27.596C13.1618 27.5 13.9898 27.356 14.4458 27.164C14.9018 26.948 15.2018 26.576 15.3458 26.048C15.4898 25.496 15.5618 24.536 15.5618 23.168V7.472C13.5218 7.544 12.1298 7.664 11.3858 7.832C10.6658 7.976 10.1738 8.324 9.90983 8.876C9.64583 9.404 9.40583 10.448 9.18983 12.008L7.49783 12.152C7.78583 9.872 7.96583 7.796 8.03783 5.924L8.36183 5.636L11.3498 6.032H22.5098L25.5698 5.636L25.8938 5.924C25.9658 7.892 26.1458 9.92 26.4338 12.008L24.7418 12.152C24.4778 10.568 24.2138 9.5 23.9498 8.948C23.6858 8.396 23.2178 8.036 22.5458 7.868C21.8738 7.7 20.5778 7.568 18.6578 7.472C18.5138 8.912 18.3818 11.456 18.2618 15.104C18.1418 18.752 18.0818 22.04 18.0818 24.968C18.0818 25.856 18.2378 26.492 18.5498 26.876C18.8618 27.236 19.3898 27.416 20.1338 27.416C20.8538 27.416 21.5138 27.38 22.1138 27.308L22.2218 27.452L21.8978 29.108L20.7098 29.072L16.6058 29C15.2858 29 13.6418 29.048 11.6738 29.144L11.9618 27.596Z" fill="black"/>
</g>
<defs>
<clipPath id="clip0_235_6">
<rect width="34" height="34" fill="white"/>
</clipPath>
</defs>
</svg>
