<svg width="26" height="26" viewBox="0 0 26 26" fill="none" xmlns="http://www.w3.org/2000/svg">
<g clip-path="url(#clip0_53_132)">
<path d="M25.1086 2.37759H22.2515C22.0483 1.68841 21.6268 1.0839 21.0502 0.655092C20.4737 0.226284 19.7735 -0.00360243 19.055 5.05211e-05C18.3362 -0.00391639 17.6357 0.225826 17.0589 0.654656C16.4821 1.08349 16.0602 1.68817 15.857 2.37759H0.891216C0.775386 2.37626 0.660428 2.39777 0.552923 2.44091C0.445417 2.48405 0.347474 2.54797 0.264696 2.629C0.181919 2.71004 0.115932 2.8066 0.0705125 2.91316C0.0250929 3.01972 0.0011317 3.1342 0 3.25003C0.0011317 3.36586 0.0250929 3.48033 0.0705125 3.5869C0.115932 3.69346 0.181919 3.79002 0.264696 3.87105C0.347474 3.95209 0.445417 4.016 0.552923 4.05914C0.660428 4.10228 0.775386 4.1238 0.891216 4.12247H15.8556C16.0589 4.81236 16.4812 5.4174 17.0586 5.84627C17.636 6.27515 18.3372 6.5046 19.0564 6.50001C19.7749 6.50366 20.4752 6.27377 21.0517 5.84497C21.6282 5.41616 22.0498 4.81165 22.253 4.12247H25.1101C25.2258 4.12361 25.3406 4.10195 25.4479 4.05873C25.5552 4.0155 25.653 3.95155 25.7356 3.87054C25.8183 3.78952 25.8841 3.69303 25.9295 3.58656C25.9748 3.48009 25.9987 3.36574 25.9998 3.25003C25.9987 3.1342 25.9747 3.01972 25.9293 2.91316C25.8839 2.8066 25.8179 2.71004 25.7351 2.629C25.6524 2.54797 25.5544 2.48405 25.4469 2.44091C25.3394 2.39777 25.2244 2.37626 25.1086 2.37759ZM19.055 4.75513C18.6516 4.75898 18.2631 4.60271 17.9747 4.32056C17.6863 4.03842 17.5216 3.65344 17.5167 3.25003C17.5167 2.41948 18.2071 1.74493 19.055 1.74493C19.9014 1.74493 20.5919 2.41948 20.5919 3.25003C20.5919 4.07913 19.9014 4.75513 19.055 4.75513ZM25.1072 11.4775C25.2231 11.476 25.3382 11.4974 25.4459 11.5404C25.5536 11.5835 25.6517 11.6474 25.7346 11.7284C25.8176 11.8095 25.8837 11.9061 25.9292 12.0128C25.9747 12.1194 25.9987 12.234 25.9998 12.35C25.9987 12.4658 25.9747 12.5803 25.9293 12.6868C25.8839 12.7934 25.8179 12.89 25.7351 12.971C25.6524 13.052 25.5544 13.1159 25.4469 13.1591C25.3394 13.2022 25.2244 13.2237 25.1086 13.2224H10.1443C9.94095 13.9121 9.51893 14.5169 8.94182 14.9458C8.36472 15.3746 7.66383 15.6042 6.94484 15.5999C6.2261 15.6039 5.52554 15.3742 4.94873 14.9453C4.37192 14.5165 3.95011 13.9118 3.74686 13.2224H0.891216C0.775386 13.2237 0.660428 13.2022 0.552923 13.1591C0.445417 13.1159 0.347474 13.052 0.264696 12.971C0.181919 12.89 0.115932 12.7934 0.0705125 12.6868C0.0250929 12.5803 0.0011317 12.4658 0 12.35C0.0011317 12.2341 0.0250929 12.1197 0.0705125 12.0131C0.115932 11.9065 0.181919 11.81 0.264696 11.7289C0.347474 11.6479 0.445417 11.584 0.552923 11.5409C0.660428 11.4977 0.775386 11.4762 0.891216 11.4775H3.74831C3.95155 10.7881 4.37336 10.1834 4.95017 9.7546C5.52698 9.32577 6.22754 9.09602 6.94629 9.09999C8.46728 9.09999 9.75282 10.1082 10.1428 11.4775H25.1072ZM6.94773 13.8551C7.79417 13.8551 8.48461 13.1805 8.48461 12.35C8.48461 11.5194 7.79417 10.8449 6.94773 10.8449C6.09985 10.8449 5.40941 11.5194 5.40941 12.35C5.40941 13.1805 6.09985 13.8551 6.94773 13.8551ZM25.1101 21.8775C25.2259 21.8761 25.3408 21.8976 25.4483 21.9408C25.5559 21.9839 25.6538 22.0478 25.7366 22.1289C25.8194 22.2099 25.8853 22.3065 25.9308 22.413C25.9762 22.5196 26.0001 22.6341 26.0013 22.7499C26.0001 22.8657 25.9762 22.9802 25.9308 23.0868C25.8853 23.1933 25.8194 23.2899 25.7366 23.3709C25.6538 23.452 25.5559 23.5159 25.4483 23.559C25.3408 23.6022 25.2259 23.6237 25.1101 23.6223H22.253C22.0497 24.3118 21.6279 24.9164 21.0511 25.3453C20.4743 25.7741 19.7737 26.0038 19.055 25.9999C18.3362 26.0038 17.6357 25.7741 17.0589 25.3453C16.4821 24.9164 16.0602 24.3118 15.857 23.6223H0.891216C0.775386 23.6237 0.660428 23.6022 0.552923 23.559C0.445417 23.5159 0.347474 23.452 0.264696 23.3709C0.181919 23.2899 0.115932 23.1933 0.0705125 23.0868C0.0250929 22.9802 0.0011317 22.8657 0 22.7499C0.0011317 22.6341 0.0250929 22.5196 0.0705125 22.413C0.115932 22.3065 0.181919 22.2099 0.264696 22.1289C0.347474 22.0478 0.445417 21.9839 0.552923 21.9408C0.660428 21.8976 0.775386 21.8761 0.891216 21.8775H15.8556C16.0589 21.1878 16.4809 20.5829 17.058 20.1541C17.6351 19.7252 18.336 19.4956 19.055 19.4999C20.576 19.4999 21.8615 20.5081 22.2515 21.8775H25.1086H25.1101ZM19.0564 24.255C19.9029 24.255 20.5933 23.5804 20.5933 22.7499C20.5933 21.9193 19.9029 21.2448 19.0564 21.2448C18.2085 21.2448 17.5181 21.9193 17.5181 22.7499C17.5181 23.5804 18.2085 24.255 19.0564 24.255Z" fill="white"/>
<circle cx="19" cy="3" r="2" fill="white"/>
<path d="M9 13C9 14.1046 8.10457 15 7 15C5.89543 15 5 14.1046 5 13C5 11.8954 5.89543 10 7 10C8.10457 10 9 11.8954 9 13Z" fill="white"/>
<circle cx="19" cy="23" r="2" fill="white"/>
</g>
<defs>
<clipPath id="clip0_53_132">
<rect width="26" height="26" fill="white"/>
</clipPath>
</defs>
</svg>
