<svg width="24" height="24" viewBox="0 0 24 24" fill="none" xmlns="http://www.w3.org/2000/svg">
<path d="M19.7143 6.64286V17.5714C19.7143 18.2155 19.4434 18.8332 18.9611 19.2887C18.4789 19.7441 17.8248 20 17.1429 20H6.85714C6.17516 20 5.5211 19.7441 5.03887 19.2887C4.55663 18.8332 4.28571 18.2155 4.28571 17.5714V6.64286H3V5.42857H6.85714V4.21429C6.85714 3.89224 6.9926 3.58338 7.23372 3.35566C7.47484 3.12793 7.80186 3 8.14286 3H15.8571C16.1981 3 16.5252 3.12793 16.7663 3.35566C17.0074 3.58338 17.1429 3.89224 17.1429 4.21429V5.42857H21V6.64286H19.7143ZM15.8571 4.21429H8.14286V5.42857H15.8571V4.21429ZM18.4286 6.64286H5.57143V17.5714C5.57143 17.8935 5.70689 18.2023 5.94801 18.4301C6.18912 18.6578 6.51615 18.7857 6.85714 18.7857H17.1429C17.4838 18.7857 17.8109 18.6578 18.052 18.4301C18.2931 18.2023 18.4286 17.8935 18.4286 17.5714V6.64286ZM13.2857 9.07143H14.5714V16.3571H13.2857V9.07143ZM9.42857 9.07143H10.7143V16.3571H9.42857V9.07143Z" fill="#D57272"/>
</svg>
