<svg width="24" height="24" viewBox="0 0 24 24" fill="none" xmlns="http://www.w3.org/2000/svg">
<path d="M21.4212 10.121C21.3068 9.51675 20.9362 9.12599 20.4615 9.12599H20.3791C19.0964 9.12599 18.053 8.08265 18.053 6.79952C18.053 6.39417 18.2475 5.93198 18.255 5.91361C18.4917 5.38105 18.3101 4.72843 17.8313 4.39347L15.4243 3.05324L15.3889 3.03592C14.9073 2.8271 14.2482 2.96076 13.8892 3.33483C13.6293 3.60282 12.7335 4.36697 12.05 4.36697C11.3576 4.36697 10.4598 3.5875 10.1986 3.31442C9.8402 2.93761 9.18791 2.79616 8.70092 3.00462L6.20817 4.37038L6.17076 4.39419C5.69192 4.7278 5.50965 5.3804 5.745 5.91092C5.75313 5.93032 5.94836 6.38875 5.94836 6.79954C5.94836 8.08267 4.90499 9.12601 3.62225 9.12601H3.52499C3.0652 9.12601 2.69451 9.51675 2.58025 10.1211C2.57174 10.1636 2.37891 11.1862 2.37891 12.0061C2.37891 12.825 2.57174 13.8473 2.58025 13.8895C2.69451 14.4941 3.0652 14.8852 3.53993 14.8852H3.62225C4.90499 14.8852 5.94836 15.9286 5.94836 17.2114C5.94836 17.6194 5.75315 18.0799 5.74567 18.0976C5.50967 18.6312 5.6906 19.2828 6.16805 19.616L8.52953 20.941L8.56558 20.9573C9.05394 21.1723 9.71435 21.0321 10.0714 20.6417C10.4013 20.2853 11.295 19.5453 11.9514 19.5453C12.6628 19.5453 13.579 20.3737 13.8429 20.6648C14.0864 20.9314 14.4605 21.092 14.8434 21.092C15.0223 21.092 15.1916 21.0566 15.3467 20.99L17.7953 19.6406L17.8313 19.6174C18.3101 19.2828 18.4924 18.6312 18.2564 18.1003C18.2482 18.0806 18.053 17.6221 18.053 17.2114C18.053 15.9286 19.0964 14.8853 20.3792 14.8853H20.4751C20.9355 14.8853 21.3069 14.4942 21.4212 13.8895C21.4293 13.8473 21.6225 12.825 21.6225 12.0062C21.6225 11.1862 21.4293 10.1636 21.4212 10.121ZM20.2268 12.0061C20.2268 12.5359 20.1214 13.2168 20.0731 13.5011C18.1489 13.6589 16.6574 15.2668 16.6574 17.2113C16.6574 17.7602 16.8315 18.286 16.924 18.5278L14.8352 19.6813C14.7325 19.5739 14.4292 19.2678 14.0163 18.9603C13.2913 18.423 12.5961 18.1485 11.9513 18.1485C11.312 18.1485 10.6224 18.4162 9.90071 18.9467C9.48989 19.246 9.19064 19.5439 9.08588 19.6541L7.07672 18.5291C7.17467 18.2751 7.34404 17.7561 7.34404 17.2113C7.34404 15.2668 5.85247 13.6589 3.929 13.5011C3.88002 13.2168 3.77459 12.536 3.77459 12.0061C3.77459 11.4752 3.88002 10.7941 3.929 10.5098C5.85247 10.3523 7.34404 8.74409 7.34404 6.79954C7.34404 6.25372 7.16992 5.72627 7.07741 5.4848L9.21787 4.30847C9.31104 4.40167 9.61643 4.70058 10.034 4.99781C10.7455 5.50555 11.423 5.76265 12.05 5.76265C12.671 5.76265 13.3437 5.51032 14.0503 5.01244C14.4714 4.71658 14.7761 4.42175 14.8645 4.33843L16.9247 5.48276C16.8315 5.72286 16.6573 6.24861 16.6573 6.79954C16.6573 8.74409 18.1489 10.3523 20.0731 10.5098C20.1214 10.7947 20.2268 11.4786 20.2268 12.0061Z" fill="#D57272"/>
<path d="M11.9584 8.57031C10.0709 8.57031 8.53516 10.1061 8.53516 11.9935C8.53516 13.8813 10.071 15.4164 11.9584 15.4164C13.8458 15.4164 15.3816 13.8813 15.3816 11.9935C15.3816 10.1061 13.8458 8.57031 11.9584 8.57031ZM13.9859 11.9935C13.9859 13.1113 13.0766 14.0207 11.9584 14.0207C10.8402 14.0207 9.93149 13.1113 9.93149 11.9935C9.93149 10.8764 10.8402 9.96667 11.9584 9.96667C13.0766 9.96669 13.9859 10.8764 13.9859 11.9935Z" fill="#D57272"/>
</svg>
