<svg width="35" height="35" viewBox="0 0 35 35" fill="none" xmlns="http://www.w3.org/2000/svg">
<path d="M17.5 32.8125C9.05627 32.8125 2.1875 25.9437 2.1875 17.5C2.1875 9.05627 9.05627 2.1875 17.5 2.1875C25.9437 2.1875 32.8125 9.05627 32.8125 17.5C32.8125 25.9437 25.9437 32.8125 17.5 32.8125ZM17.5 4.38482C10.2681 4.38482 4.38482 10.2681 4.38482 17.5C4.38482 24.7308 10.2681 30.6152 17.5 30.6152C24.7308 30.6152 30.6152 24.7308 30.6152 17.5C30.6152 10.2681 24.7308 4.38482 17.5 4.38482Z" fill="#7C7171"/>
<path d="M19.0399 17.5477L23.7692 12.8698C24.1991 12.4454 24.2024 11.753 23.778 11.3232C23.3536 10.8933 22.6602 10.89 22.2314 11.3144L17.4955 15.9979L12.8317 11.3199C12.4041 10.8922 11.7129 10.89 11.2852 11.3177C10.8575 11.7443 10.8564 12.4366 11.283 12.8643L15.9402 17.5357L11.2447 22.1808C10.8148 22.6063 10.8115 23.2976 11.2359 23.7274C11.4503 23.944 11.7314 24.0523 12.0135 24.0523C12.2913 24.0523 12.5692 23.9462 12.7825 23.7362L17.4845 19.0855L22.2248 23.8412C22.4381 24.0556 22.7181 24.1627 22.9992 24.1627C23.2792 24.1627 23.5581 24.0556 23.7714 23.8434C24.199 23.4168 24.2001 22.7255 23.7735 22.2968L19.0399 17.5477Z" fill="#7C7171"/>
</svg>
