<svg width="25" height="25" viewBox="0 0 25 25" fill="none" xmlns="http://www.w3.org/2000/svg">
<path d="M2.86111 14.2266C3.51322 14.2266 4.13862 13.9675 4.59973 13.5064C5.06084 13.0453 5.31989 12.4199 5.31989 11.7678C5.31989 11.1157 5.06084 10.4903 4.59973 10.0292C4.13862 9.56807 3.51322 9.30902 2.86111 9.30902C2.20901 9.30902 1.58361 9.56807 1.1225 10.0292C0.661392 10.4903 0.402344 11.1157 0.402344 11.7678C0.402344 12.4199 0.661392 13.0453 1.1225 13.5064C1.58361 13.9675 2.20901 14.2266 2.86111 14.2266V14.2266Z" fill="black"/>
<path d="M12.6951 14.2266C13.3472 14.2266 13.9726 13.9675 14.4337 13.5064C14.8948 13.0453 15.1539 12.4199 15.1539 11.7678C15.1539 11.1157 14.8948 10.4903 14.4337 10.0292C13.9726 9.56807 13.3472 9.30902 12.6951 9.30902C12.043 9.30902 11.4176 9.56807 10.9565 10.0292C10.4954 10.4903 10.2363 11.1157 10.2363 11.7678C10.2363 12.4199 10.4954 13.0453 10.9565 13.5064C11.4176 13.9675 12.043 14.2266 12.6951 14.2266V14.2266Z" fill="black"/>
<path d="M22.531 9.30902C23.889 9.30902 24.9898 10.4098 24.9898 11.7678C24.9898 13.1257 23.889 14.2266 22.531 14.2266C21.1731 14.2266 20.0723 13.1257 20.0723 11.7678C20.0723 10.4098 21.1731 9.30902 22.531 9.30902Z" fill="black"/>
</svg>
