<svg width="16" height="16" viewBox="0 0 16 16" fill="none" xmlns="http://www.w3.org/2000/svg">
<path d="M3.64258 14.5812V2.18945H8.0435C9.39245 2.18945 10.4328 2.44522 11.1637 2.95769C11.8947 3.47016 12.2606 4.1792 12.2606 5.08578C12.2606 5.75753 12.033 6.34734 11.5797 6.85344C11.1264 7.35953 10.5557 7.70905 9.86761 7.90111V7.93295C10.7314 8.03944 11.4295 8.35986 11.9602 8.89323C12.4918 9.42663 12.7567 10.0956 12.7567 10.9012C12.7567 12.0262 12.3571 12.9219 11.557 13.5845C10.7569 14.249 9.6628 14.5812 8.27652 14.5812H3.64258V14.5812ZM6.28316 4.15736V7.22116H7.53925C8.14273 7.22116 8.61695 7.07734 8.96375 6.78881C9.31055 6.50028 9.48348 6.09795 9.48348 5.58097C9.48348 4.63161 8.78991 4.15739 7.40272 4.15739H6.28316V4.15736ZM6.28316 9.21364V12.6133H7.85147C8.51775 12.6133 9.0393 12.4586 9.41616 12.1491C9.79116 11.8396 9.97959 11.41 9.97959 10.8611C9.97959 10.3387 9.793 9.9327 9.41981 9.64509C9.04662 9.35748 8.51597 9.21275 7.82783 9.21275H6.28319L6.28316 9.21364Z" fill="black"/>
</svg>
