<svg width="24" height="24" viewBox="0 0 24 24" fill="none" xmlns="http://www.w3.org/2000/svg">
<rect x="11" y="11" width="6.5" height="6.5" rx="0.5" fill="black" stroke="black"/>
<mask id="path-2-inside-1_56_380" fill="white">
<path fill-rule="evenodd" clip-rule="evenodd" d="M7 6C6.44772 6 6 6.44772 6 7V12.5C6 13.0523 6.44772 13.5 7 13.5H9.75V10.75C9.75 10.1977 10.1977 9.75 10.75 9.75H13.5V7C13.5 6.44772 13.0523 6 12.5 6H7Z"/>
</mask>
<path fill-rule="evenodd" clip-rule="evenodd" d="M7 6C6.44772 6 6 6.44772 6 7V12.5C6 13.0523 6.44772 13.5 7 13.5H9.75V10.75C9.75 10.1977 10.1977 9.75 10.75 9.75H13.5V7C13.5 6.44772 13.0523 6 12.5 6H7Z" fill="black"/>
<path d="M9.75 13.5V14.5H10.75V13.5H9.75ZM13.5 9.75V10.75H14.5V9.75H13.5ZM7 7V7V5C5.89543 5 5 5.89543 5 7H7ZM7 12.5V7H5V12.5H7ZM7 12.5H7H5C5 13.6046 5.89543 14.5 7 14.5V12.5ZM9.75 12.5H7V14.5H9.75V12.5ZM10.75 13.5V10.75H8.75V13.5H10.75ZM10.75 10.75V8.75C9.64543 8.75 8.75 9.64543 8.75 10.75H10.75ZM10.75 10.75H13.5V8.75H10.75V10.75ZM12.5 7V9.75H14.5V7H12.5ZM12.5 7H14.5C14.5 5.89543 13.6046 5 12.5 5V7ZM7 7H12.5V5H7V7Z" fill="black" mask="url(#path-2-inside-1_56_380)"/>
</svg>
