<svg width="34" height="34" viewBox="0 0 34 34" fill="none" xmlns="http://www.w3.org/2000/svg">
<g clip-path="url(#clip0_53_51)">
<path d="M33.2986 16.7342L17.8495 1.11548C17.7383 1.00272 17.6062 0.913261 17.4607 0.852222C17.3153 0.791184 17.1593 0.759766 17.0019 0.759766C16.8444 0.759766 16.6885 0.791184 16.543 0.852222C16.3976 0.913261 16.2655 1.00272 16.1542 1.11548L0.70513 16.7342C0.255047 17.1896 0 17.8081 0 18.4532C0 19.7927 1.07645 20.8818 2.40044 20.8818H4.02824V32.0266C4.02824 32.6983 4.56459 33.2409 5.22846 33.2409H13.2222V23.2962H19.5185V33.2409H28.7753C29.4392 33.2409 29.9755 32.6983 29.9755 32.0266V20.8818H31.6033C32.2409 20.8818 32.8523 20.6275 33.3024 20.1684C34.2363 19.2197 34.2363 17.6829 33.2986 16.7342Z" fill="#A46A6A"/>
</g>
<defs>
<clipPath id="clip0_53_51">
<rect width="34" height="34" fill="white"/>
</clipPath>
</defs>
</svg>
