<svg width="34" height="34" viewBox="0 0 34 34" fill="none" xmlns="http://www.w3.org/2000/svg">
<path d="M31.1673 18.3912V25.4994C31.1673 27.6509 29.423 29.3952 27.2715 29.3952H6.72982C4.57826 29.3952 2.83398 27.6509 2.83398 25.4994V8.49935C2.83398 6.34779 4.57826 4.60352 6.72982 4.60352H27.2715C29.423 4.60352 31.1673 6.34779 31.1673 8.49935V18.3912ZM29.0423 15.9135V8.49935C29.0423 8.2668 28.9965 8.03653 28.9075 7.82168C28.8185 7.60683 28.6881 7.41162 28.5237 7.24718C28.3592 7.08274 28.164 6.95231 27.9492 6.86331C27.7343 6.77432 27.504 6.72852 27.2715 6.72852H6.72982C6.49727 6.72852 6.267 6.77432 6.05215 6.86331C5.8373 6.95231 5.64209 7.08274 5.47765 7.24718C5.31321 7.41162 5.18277 7.60683 5.09378 7.82168C5.00479 8.03653 4.95898 8.2668 4.95898 8.49935V19.9372C5.42799 19.8675 5.9015 19.8326 6.37565 19.8327C8.59719 19.8294 10.75 20.6028 12.4616 22.019C14.1794 17.5433 18.4917 14.5202 23.3756 14.5202C25.5573 14.5202 27.5924 15.0773 29.0423 15.9135ZM29.0423 18.6441C28.8652 18.3679 28.3407 17.9251 27.5931 17.5511C26.4558 16.9823 25.0041 16.6452 23.3756 16.6452C19.3325 16.6452 15.7678 19.1775 14.3965 22.9104C14.3058 23.1576 14.1507 23.5851 13.9318 24.1914C13.6768 24.8987 12.7878 25.1246 12.2261 24.6249C11.6804 24.139 11.278 23.7926 11.0262 23.5907C9.70816 22.531 8.0669 21.9547 6.37565 21.9577C5.8954 21.9577 5.42188 22.003 4.95898 22.0923V25.4994C4.95898 25.7319 5.00479 25.9622 5.09378 26.177C5.18277 26.3919 5.31321 26.5871 5.47765 26.7515C5.64209 26.916 5.8373 27.0464 6.05215 27.1354C6.267 27.2244 6.49727 27.2702 6.72982 27.2702H27.2715C27.504 27.2702 27.7343 27.2244 27.9492 27.1354C28.164 27.0464 28.3592 26.916 28.5237 26.7515C28.6881 26.5871 28.8185 26.3919 28.9075 26.177C28.9965 25.9622 29.0423 25.7319 29.0423 25.4994V18.6441ZM10.6257 15.9368C9.78027 15.9368 8.96952 15.601 8.37175 15.0033C7.77398 14.4055 7.43815 13.5947 7.43815 12.7493C7.43815 11.904 7.77398 11.0932 8.37175 10.4954C8.96952 9.89767 9.78027 9.56185 10.6257 9.56185C11.471 9.56185 12.2818 9.89767 12.8796 10.4954C13.4773 11.0932 13.8131 11.904 13.8131 12.7493C13.8131 13.5947 13.4773 14.4055 12.8796 15.0033C12.2818 15.601 11.471 15.9368 10.6257 15.9368ZM10.6257 13.8118C10.9074 13.8118 11.1777 13.6999 11.377 13.5007C11.5762 13.3014 11.6881 13.0311 11.6881 12.7493C11.6881 12.4676 11.5762 12.1973 11.377 11.998C11.1777 11.7988 10.9074 11.6868 10.6257 11.6868C10.3439 11.6868 10.0736 11.7988 9.87435 11.998C9.67509 12.1973 9.56315 12.4676 9.56315 12.7493C9.56315 13.0311 9.67509 13.3014 9.87435 13.5007C10.0736 13.6999 10.3439 13.8118 10.6257 13.8118Z" fill="black"/>
</svg>
