<svg width="19" height="19" viewBox="0 0 19 19" fill="none" xmlns="http://www.w3.org/2000/svg">
<path fill-rule="evenodd" clip-rule="evenodd" d="M9.57202 5.14648C9.98686 5.14648 10.3236 5.48317 10.3236 5.89802V8.81668L13.246 8.81688C13.6609 8.81688 13.9976 9.15356 13.9976 9.56841C13.9976 9.98326 13.6609 10.3199 13.246 10.3199L10.3236 10.3197V13.24C10.3236 13.6549 9.98686 13.9915 9.57202 13.9915C9.15717 13.9915 8.82048 13.6549 8.82048 13.24V10.3197L5.89802 10.3199C5.48217 10.3199 5.14648 9.98326 5.14648 9.56841C5.14648 9.15356 5.48217 8.81688 5.89802 8.81688L8.82048 8.81668V5.89802C8.82048 5.48317 9.15717 5.14648 9.57202 5.14648Z" fill="black"/>
</svg>
