<svg width="14" height="14" viewBox="0 0 14 14" fill="none" xmlns="http://www.w3.org/2000/svg">
<path d="M6.4 12C6.4 12.3314 6.66863 12.6 7 12.6C7.33137 12.6 7.6 12.3314 7.6 12H6.4ZM7.42426 1.57574C7.18995 1.34142 6.81005 1.34142 6.57574 1.57574L2.75736 5.39411C2.52304 5.62843 2.52304 6.00833 2.75736 6.24264C2.99167 6.47696 3.37157 6.47696 3.60589 6.24264L7 2.84853L10.3941 6.24264C10.6284 6.47696 11.0083 6.47696 11.2426 6.24264C11.477 6.00833 11.477 5.62843 11.2426 5.39411L7.42426 1.57574ZM7.6 12L7.6 2H6.4L6.4 12H7.6Z" fill="#FFA629"/>
<line x1="2.5" y1="12.5" x2="11.5" y2="12.5" stroke="black" stroke-linecap="round"/>
</svg>
