<svg width="32" height="26" viewBox="0 0 32 26" fill="none" xmlns="http://www.w3.org/2000/svg">
<path d="M28.0596 7.53584C28.5156 7.58384 28.9716 7.70384 29.4276 7.89584C29.8836 8.08784 30.2796 8.35784 30.6156 8.70584C30.9516 9.05384 31.2036 9.49184 31.3716 10.0198C31.5396 10.5478 31.5636 11.1838 31.4436 11.9278C31.3956 12.1198 31.2996 12.5938 31.1556 13.3498C31.0116 14.1058 30.8436 14.9758 30.6516 15.9598C30.4596 16.9438 30.2436 17.9578 30.0036 19.0018C29.7636 20.0458 29.5356 20.9398 29.3196 21.6838C29.1996 22.1158 29.0256 22.5598 28.7976 23.0158C28.5696 23.4718 28.2756 23.8858 27.9156 24.2578C27.5556 24.6298 27.1236 24.9358 26.6196 25.1758C26.1156 25.4158 25.5156 25.5358 24.8196 25.5358H4.87558C4.37158 25.5358 3.84958 25.4278 3.30958 25.2118C2.76958 24.9958 2.27158 24.6898 1.81558 24.2938C1.35958 23.8978 0.987578 23.4178 0.699578 22.8538C0.411578 22.2898 0.267578 21.6598 0.267578 20.9638V5.51984C0.267578 4.05584 0.663578 2.90984 1.45558 2.08184C2.24758 1.25384 3.36358 0.839844 4.80358 0.839844H22.5156C23.0436 0.839844 23.5896 0.941844 24.1536 1.14584C24.7176 1.34984 25.2276 1.63184 25.6836 1.99184C26.1396 2.35184 26.5116 2.77184 26.7996 3.25184C27.0876 3.73184 27.2316 4.24784 27.2316 4.79984V5.19584H25.3596C24.3996 5.19584 23.2776 5.18984 21.9936 5.17784C20.7096 5.16584 19.3416 5.15984 17.8896 5.15984C16.4376 5.15984 15.0816 5.15384 13.8216 5.14184C12.5616 5.12984 11.4756 5.12384 10.5636 5.12384H8.90758C8.28358 5.12384 7.79758 5.32184 7.44958 5.71784C7.10158 6.11384 6.83158 6.63584 6.63958 7.28384C6.44758 7.97984 6.23158 8.71784 5.99158 9.49784C5.75158 10.2778 5.53558 11.0038 5.34358 11.6758C5.10358 12.4678 4.86358 13.2358 4.62358 13.9798C4.57558 14.1718 4.55158 14.3278 4.55158 14.4478C4.55158 14.8558 4.68958 15.1978 4.96558 15.4738C5.24158 15.7498 5.58358 15.8878 5.99158 15.8878C6.73558 15.8878 7.23958 15.4198 7.50358 14.4838L9.41158 7.49984C12.5316 7.52384 15.3876 7.53584 17.9796 7.53584H28.0596Z" fill="#AD7878"/>
</svg>
