<svg width="60" height="60" viewBox="0 0 36 36" fill="none" xmlns="http://www.w3.org/2000/svg">
<g clip-path="url(#clip0_274_14)">
<path d="M32.0058 5.65193H28.819C28.5924 4.88323 28.1221 4.20896 27.4791 3.73068C26.8361 3.25239 26.055 2.99598 25.2536 3.00006C24.452 2.99563 23.6706 3.25188 23.0272 3.73019C22.3838 4.2085 21.9134 4.88296 21.6867 5.65193H4.99405C4.86485 5.65044 4.73663 5.67444 4.61672 5.72256C4.49681 5.77068 4.38757 5.84197 4.29524 5.93235C4.20291 6.02273 4.12931 6.13044 4.07865 6.24929C4.02799 6.36815 4.00126 6.49583 4 6.62503C4.00126 6.75423 4.02799 6.88191 4.07865 7.00077C4.12931 7.11963 4.20291 7.22733 4.29524 7.31771C4.38757 7.4081 4.49681 7.47939 4.61672 7.52751C4.73663 7.57562 4.86485 7.59963 4.99405 7.59814H21.685C21.9119 8.36764 22.3829 9.04248 23.0269 9.52084C23.6709 9.99921 24.453 10.2551 25.2552 10.25C26.0566 10.2541 26.8377 9.99767 27.4807 9.51939C28.1238 9.0411 28.594 8.36684 28.8206 7.59814H32.0074C32.1364 7.59941 32.2645 7.57525 32.3842 7.52704C32.5039 7.47883 32.613 7.4075 32.7051 7.31714C32.7973 7.22678 32.8708 7.11915 32.9213 7.00039C32.9719 6.88164 32.9985 6.75409 32.9998 6.62503C32.9985 6.49583 32.9718 6.36815 32.9212 6.24929C32.8705 6.13044 32.7969 6.02273 32.7046 5.93235C32.6122 5.84197 32.503 5.77068 32.3831 5.72256C32.2632 5.67444 32.135 5.65044 32.0058 5.65193ZM25.2536 8.3038C24.8037 8.3081 24.3704 8.13379 24.0487 7.81909C23.7271 7.50439 23.5433 7.07499 23.5378 6.62503C23.5378 5.69865 24.3079 4.94627 25.2536 4.94627C26.1977 4.94627 26.9678 5.69865 26.9678 6.62503C26.9678 7.5498 26.1977 8.3038 25.2536 8.3038ZM32.0041 15.8019C32.1335 15.8002 32.2619 15.824 32.382 15.872C32.5021 15.92 32.6115 15.9913 32.704 16.0817C32.7965 16.1721 32.8702 16.2799 32.921 16.3989C32.9718 16.5178 32.9985 16.6456 32.9998 16.775C32.9985 16.9042 32.9718 17.0318 32.9212 17.1507C32.8705 17.2696 32.7969 17.3773 32.7046 17.4676C32.6122 17.558 32.503 17.6293 32.3831 17.6774C32.2632 17.7256 32.135 17.7496 32.0058 17.7481H15.3148C15.088 18.5173 14.6173 19.192 13.9736 19.6703C13.3299 20.1486 12.5481 20.4047 11.7462 20.3999C10.9445 20.4044 10.1631 20.1481 9.51974 19.6698C8.87637 19.1915 8.40589 18.517 8.17919 17.7481H4.99405C4.86485 17.7496 4.73663 17.7256 4.61672 17.6774C4.49681 17.6293 4.38757 17.558 4.29524 17.4676C4.20291 17.3773 4.12931 17.2696 4.07865 17.1507C4.02799 17.0318 4.00126 16.9042 4 16.775C4.00126 16.6458 4.02799 16.5181 4.07865 16.3992C4.12931 16.2804 4.20291 16.1727 4.29524 16.0823C4.38757 15.9919 4.49681 15.9206 4.61672 15.8725C4.73663 15.8244 4.86485 15.8004 4.99405 15.8019H8.18081C8.4075 15.0329 8.87798 14.3584 9.52135 13.8801C10.1647 13.4018 10.9461 13.1456 11.7478 13.15C13.4443 13.15 14.8781 14.2745 15.3131 15.8019H32.0041ZM11.7494 18.4537C12.6935 18.4537 13.4636 17.7014 13.4636 16.775C13.4636 15.8486 12.6935 15.0962 11.7494 15.0962C10.8037 15.0962 10.0336 15.8486 10.0336 16.775C10.0336 17.7014 10.8037 18.4537 11.7494 18.4537ZM32.0074 27.4018C32.1366 27.4003 32.2648 27.4243 32.3847 27.4724C32.5046 27.5205 32.6139 27.5918 32.7062 27.6822C32.7985 27.7726 32.8721 27.8803 32.9228 27.9992C32.9734 28.118 33.0002 28.2457 33.0014 28.3749C33.0002 28.5041 32.9734 28.6318 32.9228 28.7506C32.8721 28.8695 32.7985 28.9772 32.7062 29.0676C32.6139 29.158 32.5046 29.2292 32.3847 29.2774C32.2648 29.3255 32.1366 29.3495 32.0074 29.348H28.8206C28.5939 30.117 28.1234 30.7914 27.4801 31.2697C26.8367 31.748 26.0553 32.0043 25.2536 31.9999C24.452 32.0043 23.6706 31.748 23.0272 31.2697C22.3838 30.7914 21.9134 30.117 21.6867 29.348H4.99405C4.86485 29.3495 4.73663 29.3255 4.61672 29.2774C4.49681 29.2292 4.38757 29.158 4.29524 29.0676C4.20291 28.9772 4.12931 28.8695 4.07865 28.7506C4.02799 28.6318 4.00126 28.5041 4 28.3749C4.00126 28.2457 4.02799 28.118 4.07865 27.9992C4.12931 27.8803 4.20291 27.7726 4.29524 27.6822C4.38757 27.5918 4.49681 27.5205 4.61672 27.4724C4.73663 27.4243 4.86485 27.4003 4.99405 27.4018H21.685C21.9118 26.6326 22.3825 25.9579 23.0262 25.4796C23.6699 25.0012 24.4517 24.7451 25.2536 24.7499C26.9501 24.7499 28.384 25.8745 28.819 27.4018H32.0058H32.0074ZM25.2552 30.0537C26.1994 30.0537 26.9695 29.3013 26.9695 28.3749C26.9695 27.4485 26.1994 26.6961 25.2552 26.6961C24.3095 26.6961 23.5394 27.4485 23.5394 28.3749C23.5394 29.3013 24.3095 30.0537 25.2552 30.0537Z" fill="#AD7878"/>
<circle cx="25.1917" cy="6.346" r="2.23077" fill="#AD7878"/>
<path d="M14.0377 17.5005C14.0377 18.7325 13.039 19.7312 11.8069 19.7312C10.5749 19.7312 9.57617 18.7325 9.57617 17.5005C9.57617 16.2684 10.5749 14.1543 11.8069 14.1543C13.039 14.1543 14.0377 16.2684 14.0377 17.5005Z" fill="#AD7878"/>
<circle cx="25.1917" cy="28.6546" r="2.23077" fill="#AD7878"/>
</g>
<defs>
<clipPath id="clip0_274_14">
<rect width="29" height="29" fill="white" transform="translate(4 3)"/>
</clipPath>
</defs>
</svg>
