<svg width="18" height="18" viewBox="0 0 18 18" fill="none" xmlns="http://www.w3.org/2000/svg">
<path d="M8.96999 13.2611C8.56745 13.2611 8.16667 13.1293 7.85202 12.8639L1.60827 9.44316L1.57487 9.41328C0.98073 8.87891 0.908659 8.01582 1.40612 7.40234L2.01608 7.89805C1.79284 8.17402 1.81745 8.54668 2.07057 8.7998L8.30729 12.217L8.34069 12.2469C8.68171 12.5527 9.25651 12.5545 9.59753 12.2469L9.63093 12.217L15.8676 8.80156C16.1208 8.54844 16.1454 8.17578 15.9221 7.8998L16.5321 7.4041C17.0296 8.01582 16.9575 8.88066 16.3633 9.41328L16.3299 9.44316L10.0862 12.8639C9.77331 13.1275 9.37077 13.2611 8.96999 13.2611V13.2611Z" fill="black"/>
<path d="M8.89382 16.8588C8.49128 16.8588 8.0905 16.727 7.77585 16.4615L1.5321 13.0408L1.4987 13.0109C0.904558 12.4766 0.832487 11.6135 1.32995 11L1.93991 11.4957C1.71667 11.7717 1.74128 12.1443 1.9944 12.3975L8.23112 15.8146L8.26452 15.8445C8.60553 16.1504 9.18034 16.1521 9.52135 15.8445L9.55475 15.8146L15.7915 12.3992C16.0446 12.1461 16.0692 11.7734 15.846 11.4975L16.4559 11.0018C16.9534 11.6135 16.8813 12.4783 16.2872 13.0109L16.2538 13.0408L10.01 16.4615C9.69714 16.7252 9.2946 16.8588 8.89382 16.8588V16.8588Z" fill="black"/>
<path d="M16.1037 4.84395L9.86167 1.5041C9.36948 1.06113 8.57143 1.06113 8.07924 1.5041L1.83725 4.84395C1.39252 5.24473 1.35034 5.87051 1.71069 6.31348C1.74936 6.36094 1.78979 6.40488 1.83725 6.44883L2.82338 6.98848L8.07924 9.86777C8.57143 10.3107 9.36948 10.3107 9.86167 9.86777L15.1175 6.98848L16.1037 6.44883C16.1511 6.40664 16.1915 6.36094 16.2302 6.31348C16.5888 5.87051 16.5484 5.24473 16.1037 4.84395Z" fill="#FFA629"/>
</svg>
