<svg width="45" height="45" viewBox="0 0 45 45" fill="none" xmlns="http://www.w3.org/2000/svg">
<path d="M22.1273 7.73473C22.9904 7.73473 23.7229 8.36907 23.7956 9.20482L24.6997 19.6252C24.8691 20.2755 25.0676 20.4797 25.2503 20.4797C25.562 20.4797 25.8282 19.8856 25.8282 19.8856L27.4368 11.2353C27.5803 10.4606 28.2876 9.91336 29.0846 9.91336C29.181 9.91336 29.2803 9.92128 29.3795 9.93855C30.29 10.0939 30.8978 10.9253 30.736 11.7978L29.1609 20.2698C29.1623 20.3029 29.2012 21.5284 29.6298 21.5284C29.778 21.5284 29.9715 21.3853 30.2239 20.9991C30.2239 20.9991 30.2239 20.9977 30.2253 20.9962L32.8664 15.53C33.1843 15.0445 33.7302 14.7777 34.2876 14.7777C34.5919 14.7777 34.899 14.8554 35.1766 15.0237C35.9591 15.4926 36.1979 16.4808 35.7059 17.2318L30.9711 26.8127C30.9711 26.8127 30.3864 30.975 28.4559 34.3655C26.5255 37.756 22.9996 36.7885 21.4996 36.5005C18.3085 35.8877 16.8275 33.2701 15.1984 30.4585L9.63294 25.9561C8.92629 25.3828 8.83819 24.3723 9.43548 23.6962C9.766 23.3215 10.2393 23.1287 10.7161 23.1287C11.0977 23.1287 11.4814 23.2517 11.7957 23.5063L14.9798 25.8993C15.3135 26.1495 15.7293 26.333 16.1094 26.333C17.0753 26.333 17.8216 25.1613 16.4787 20.9631L13.8021 12.6227C13.5299 11.7755 14.0276 10.8793 14.9112 10.6197C15.0745 10.5714 15.241 10.5492 15.4032 10.5492C16.1192 10.5492 17.2781 10.547 17.4996 11.2353L19.6564 19.9461C19.6856 19.9993 19.7182 20.0683 19.7553 20.1705C19.9517 20.7084 20.4825 21.5075 20.877 21.5075C21.1758 21.5075 21.3984 21.0522 21.3423 19.6856L20.4562 9.46947C20.3796 8.58915 21.0643 7.81522 21.9878 7.74188C22.0345 7.73904 22.0816 7.73473 22.1273 7.73473ZM22.1273 5.63672C22.0219 5.63672 21.9144 5.64171 21.8079 5.64962C19.6794 5.81867 18.0938 7.61173 18.2714 9.64359L18.2728 9.66302C17.5565 8.90564 16.5287 8.45109 15.4031 8.45109C15.019 8.45109 14.6363 8.50577 14.2674 8.61437C13.2795 8.9042 12.4693 9.54655 11.9863 10.4175C11.5005 11.2921 11.4016 12.2933 11.7065 13.2398L14.3814 21.5781C14.5741 22.1815 14.7101 22.6843 14.8057 23.1007L13.1767 21.8765C12.4858 21.3284 11.613 21.0307 10.7161 21.0307H10.715C9.57358 21.0307 8.49728 21.5075 7.76036 22.3411C7.09328 23.0949 6.77319 24.0551 6.85953 25.0398C6.94547 26.0251 7.42808 26.9199 8.21707 27.5586L13.4862 31.8208C14.546 33.547 13.9996 32.5005 15.9996 35.0005L18.4996 37.5005C18.4996 37.5005 20.673 39.0005 23.7956 39.0005C26.2956 39.0005 27.9996 38.0005 27.9996 38.0005L29.4996 36.5005L30.4996 35.0005C32.1021 31.9689 32.9095 28.5022 33.0907 27.4334L37.6435 18.217C38.6692 16.5052 38.1039 14.3014 36.3403 13.2434C35.7232 12.873 35.0133 12.6788 34.2876 12.6788C33.7453 12.6788 33.2217 12.7852 32.7434 12.9823L32.8951 12.1645C33.267 10.1542 31.8609 8.22953 29.7629 7.87274C29.5399 7.83537 29.3119 7.81522 29.0846 7.81522C27.8378 7.81522 26.714 8.37986 26.0023 9.27817L25.9811 9.03147C25.8159 7.1284 24.1231 5.63672 22.1273 5.63672Z" fill="black"/>
</svg>
