<svg width="16" height="16" viewBox="0 0 16 16" fill="none" xmlns="http://www.w3.org/2000/svg">
<path d="M3.79135 2V7.62533C3.79135 8.71944 4.22598 9.76873 4.99963 10.5424C5.77328 11.316 6.82258 11.7507 7.91668 11.7507C9.01079 11.7507 10.0601 11.316 10.8337 10.5424C11.6074 9.76873 12.042 8.71944 12.042 7.62533V2H10.166V7.62533C10.166 8.22207 9.92896 8.79437 9.50701 9.21632C9.08505 9.63828 8.51275 9.87533 7.91602 9.87533C7.31928 9.87533 6.74698 9.63828 6.32503 9.21632C5.90307 8.79437 5.66602 8.22207 5.66602 7.62533V2H3.79135ZM2.66602 12.5H13.166V14H2.66602V12.5Z" fill="black"/>
</svg>
