<svg width="24" height="25" viewBox="0 0 24 25" fill="none" xmlns="http://www.w3.org/2000/svg">
<path d="M0.75 0H22.7965V7.73075H21.8216C21.8216 7.73075 19.9609 3.01029 17.7656 2.5983C15.5702 2.18631 14.0442 2.46982 14.0442 2.46982L14.0168 22.1792C14.0168 22.1792 14.6261 23.5114 15.6318 23.6059H17.8582V24.9666H5.69009L5.72087 23.5721L7.67084 23.5399C7.67084 23.5399 9.13512 23.0637 9.13512 21.9546C9.13512 20.8471 9.16601 2.62862 9.16601 2.62862C9.16601 2.62862 6.75768 2.28262 5.50639 2.60002C4.25684 2.91571 2.05971 4.81682 1.72497 7.60407L0.75 7.63619V0Z" fill="black"/>
</svg>
