<svg width="54" height="54" viewBox="0 0 54 54" fill="none" xmlns="http://www.w3.org/2000/svg">
<path d="M43.2712 22.3898L31.8814 11L29.4407 13.4407L28.3559 12.3559L13.1695 27.8136L14.2542 28.8983L12.6271 29.9831C10.4576 32.1525 10.4576 35.4068 12.6271 37.5763L16.4237 41.3729C18.5932 43.5424 21.8475 43.5424 24.0169 41.3729L25.3729 40.017L26.4576 41.1017L41.9152 25.6441L40.8305 24.8305L43.2712 22.3898ZM31.8814 12.8983L41.3729 22.3898L39.7458 24.0169L30.2542 14.2542L31.8814 12.8983ZM23.7458 40.017C21.8475 41.9153 18.8644 41.9153 16.9661 40.017L13.9831 37.0339C12.0847 35.1356 12.0847 32.1525 13.9831 30.2542L15.0678 29.7119L24.5593 39.2034L23.7458 40.017Z" fill="black"/>
</svg>
