<svg width="18" height="18" viewBox="0 0 18 18" fill="none" xmlns="http://www.w3.org/2000/svg">
<path d="M8.96999 13.2611C8.56745 13.2611 8.16667 13.1293 7.85202 12.8639L1.60827 9.44316L1.57487 9.41328C0.98073 8.87891 0.908659 8.01582 1.40612 7.40234L2.01608 7.89805C1.79284 8.17402 1.81745 8.54668 2.07057 8.7998L8.30729 12.217L8.34069 12.2469C8.68171 12.5527 9.25651 12.5545 9.59753 12.2469L9.63093 12.217L15.8676 8.80156C16.1208 8.54844 16.1454 8.17578 15.9221 7.8998L16.5321 7.4041C17.0296 8.01582 16.9575 8.88066 16.3633 9.41328L16.3299 9.44316L10.0862 12.8639C9.77331 13.1275 9.37077 13.2611 8.96999 13.2611V13.2611Z" fill="black"/>
<path d="M9.52737 1.87575L9.57247 1.91634L9.62596 1.94496L15.8071 5.25222C16.018 5.47328 16.0222 5.77551 15.8422 5.99833C15.8276 6.01627 15.8151 6.03082 15.804 6.04296L14.8777 6.54986L14.8775 6.54997L9.62162 9.42927L9.57061 9.45721L9.52737 9.49613C9.22533 9.76796 8.71595 9.76796 8.41391 9.49613L8.37067 9.45721L8.31965 9.42927L3.0638 6.54997L3.0636 6.54986L2.13857 6.04365C2.12506 6.02925 2.11198 6.01419 2.09862 5.9978C1.91848 5.77622 1.92216 5.4742 2.13417 5.25225L8.31531 1.94496L8.36881 1.91634L8.41391 1.87575C8.71595 1.60392 9.22533 1.60392 9.52737 1.87575Z" stroke="black"/>
<path d="M1.5 12.5V10.5C1.5 10.5 7.5 14.5 9 14.5C10.5 14.5 16.5 10.5 16.5 10.5L16.5 12.5C16.5 13 10.5 16.5 10.5 16.5C10.5 16.5 9.61748 17 9 17C8.5 17 7.5 16.5 7.5 16.5C7.5 16.5 1.5 13 1.5 12.5Z" fill="#FFA629" stroke="#FFA629"/>
</svg>
