<svg width="42" height="42" viewBox="0 0 42 42" fill="none" xmlns="http://www.w3.org/2000/svg">
<path opacity="0.5" fill-rule="evenodd" clip-rule="evenodd" d="M3.5 21.1142C3.5 11.351 11.2121 3.5 20.648 3.5C30.0839 3.5 37.796 11.351 37.796 21.1142C37.796 30.8774 30.0839 38.7284 20.648 38.7284C11.2121 38.7284 3.5 30.8774 3.5 21.1142ZM20.648 0.5C9.48587 0.5 0.5 9.76443 0.5 21.1142C0.5 32.464 9.48587 41.7284 20.648 41.7284C31.8102 41.7284 40.796 32.464 40.796 21.1142C40.796 9.76443 31.8102 0.5 20.648 0.5ZM14.8672 23.5478C15.8971 23.5478 16.732 22.3069 16.732 20.7762C16.732 19.2455 15.8971 18.0046 14.8672 18.0046C13.8372 18.0046 13.0023 19.2455 13.0023 20.7762C13.0023 22.3069 13.8372 23.5478 14.8672 23.5478ZM26.3357 23.5478C27.3656 23.5478 28.2005 22.3069 28.2005 20.7762C28.2005 19.2455 27.3656 18.0046 26.3357 18.0046C25.3058 18.0046 24.4709 19.2455 24.4709 20.7762C24.4709 22.3069 25.3058 23.5478 26.3357 23.5478Z" fill="white"/>
<path d="M21.1142 40.2284C31.6707 40.2284 40.2284 31.6707 40.2284 21.1142C40.2284 10.5577 31.6707 2 21.1142 2C10.5577 2 2 10.5577 2 21.1142C2 31.6707 10.5577 40.2284 21.1142 40.2284Z" fill="white" stroke="#C1B1CD" stroke-width="3" stroke-miterlimit="10"/>
<path opacity="0.9" d="M15.1888 22.5478C16.2444 22.5478 17.1002 21.3069 17.1002 19.7762C17.1002 18.2455 16.2444 17.0046 15.1888 17.0046C14.1331 17.0046 13.2773 18.2455 13.2773 19.7762C13.2773 21.3069 14.1331 22.5478 15.1888 22.5478Z" fill="#BAA8C8"/>
<path opacity="0.9" d="M26.944 22.5478C27.9997 22.5478 28.8554 21.3069 28.8554 19.7762C28.8554 18.2455 27.9997 17.0046 26.944 17.0046C25.8884 17.0046 25.0326 18.2455 25.0326 19.7762C25.0326 21.3069 25.8884 22.5478 26.944 22.5478Z" fill="#BAA8C8"/>
</svg>
