<svg width="40" height="40" viewBox="0 0 40 40" fill="none" xmlns="http://www.w3.org/2000/svg">
<g style="mix-blend-mode:luminosity">
<path d="M14.6379 31.8615H11.5129V37.1428H14.6379V31.8615Z" fill="white"/>
<path d="M34.6212 19.8268V37.1428H23.6838V31.8614H27.7956C28.5357 31.8614 29.1114 31.2554 29.1114 30.4762C29.1114 29.6969 28.5357 29.0043 27.7956 29.0043H23.6838V26.1472H27.7956C28.5357 26.1472 29.1114 25.5411 29.1114 24.7619C29.1114 23.9826 28.5357 23.3766 27.7956 23.3766H23.6838V15.4978L34.6212 19.8268Z" fill="white"/>
<path d="M20.97 30.5627V37.1428H17.2694V29.0043H8.79915V37.1428H4.68738V2.85712H20.97V13.3333V24.6753V24.7619V24.8485V30.3896V30.4762C20.97 30.4762 20.97 30.4762 20.97 30.5627ZM16.9405 22.8571V20C16.9405 19.2208 16.3648 18.5281 15.5425 18.5281C14.8023 18.5281 14.2267 19.1342 14.2267 20V22.8571C14.2267 23.6363 14.8023 24.2424 15.5425 24.2424C16.3648 24.2424 16.9405 23.6363 16.9405 22.8571ZM16.9405 12.8138V9.95668C16.9405 9.17746 16.3648 8.48482 15.5425 8.48482C14.8023 8.48482 14.2267 9.09088 14.2267 9.95668V12.8138C14.2267 13.593 14.8023 14.2857 15.5425 14.2857C16.3648 14.2857 16.9405 13.593 16.9405 12.8138ZM11.5129 22.8571V20C11.5129 19.2208 10.9373 18.5281 10.1149 18.5281C9.29257 18.5281 8.79915 19.2208 8.79915 20V22.8571C8.79915 23.6363 9.3748 24.2424 10.1149 24.2424C10.855 24.2424 11.5129 23.6363 11.5129 22.8571ZM11.5129 12.8138V9.95668C11.5129 9.17746 10.9373 8.48482 10.1149 8.48482C9.29257 8.48482 8.79915 9.17746 8.79915 9.95668V12.8138C8.79915 13.593 9.3748 14.2857 10.1149 14.2857C10.855 14.2857 11.5129 13.593 11.5129 12.8138Z" fill="white"/>
<path d="M37.3349 20.9524V37.1429H34.6211V19.8269L37.3349 20.9524Z" fill="#9DB5CD"/>
<path d="M37.3349 18.5281V20.9524L34.6211 19.8268V18.5281H37.3349Z" fill="#9DB5CD"/>
<path d="M39.1442 18.6147C39.802 18.8744 40.2132 19.7402 39.8843 20.4329C39.6376 21.2121 38.8152 21.5584 38.1573 21.2121L37.335 20.8658V18.4415H34.6212V19.7402L23.7661 15.2381V12.2078L39.1442 18.6147Z" fill="#9DB5CD"/>
<path d="M27.7956 23.29C28.5357 23.29 29.1114 23.8961 29.1114 24.6753C29.1114 25.4545 28.5357 26.0606 27.7956 26.0606H23.6838V23.2034H27.7956V23.29Z" fill="#9DB5CD"/>
<path d="M27.7956 29.0043C28.5357 29.0043 29.1114 29.6103 29.1114 30.4761C29.1114 31.2554 28.5357 31.8614 27.7956 31.8614H23.6838V29.0043H27.7956Z" fill="#9DB5CD"/>
<path d="M23.6839 31.8614V37.1428H20.9701V30.5627C20.9701 31.342 21.628 31.8614 22.2859 31.8614H23.6839Z" fill="#9DB5CD"/>
<path d="M23.6839 29.0043V31.8614H22.2859C21.5457 31.8614 20.9701 31.2554 20.9701 30.5627V30.3896C20.9701 29.6103 21.628 29.0909 22.2859 29.0909H23.6839V29.0043Z" fill="#9DB5CD"/>
<path d="M23.6839 26.1472V29.0043H22.2859C21.5457 29.0043 20.9701 29.6104 20.9701 30.303V24.8484C20.9701 25.6277 21.628 26.1472 22.2859 26.1472H23.6839Z" fill="#9DB5CD"/>
<path d="M23.6839 23.2901V26.1472H22.2859C21.5457 26.1472 20.9701 25.5412 20.9701 24.8485V24.6754C20.9701 23.8962 21.628 23.3767 22.2859 23.3767H23.6839V23.2901Z" fill="#9DB5CD"/>
<path d="M23.6839 12.2944V15.3247L21.7924 14.5455C21.299 14.2857 20.9701 13.7662 20.9701 13.2468C20.9701 13.0736 20.9701 12.9004 21.0523 12.7273C21.299 12.0346 22.1214 11.6017 22.7793 11.9481L23.6839 12.2944Z" fill="#9DB5CD"/>
<path d="M20.9701 24.5888V13.2468C20.9701 13.8528 21.299 14.3723 21.7924 14.5455L23.6839 15.3247V23.2035H22.2859C21.628 23.2901 21.0523 23.8961 20.9701 24.5888Z" fill="#9DB5CD"/>
<path d="M20.97 13.2468V2.85714H4.6874V37.1429H1.97363V2.85714C1.97363 1.2987 3.20717 0 4.6874 0H20.97C22.4503 0 23.6838 1.2987 23.6838 2.85714V12.2944L22.7792 11.9481C22.1213 11.6883 21.299 12.0346 21.0523 12.7273C21.0523 12.9004 21.0523 13.0736 20.97 13.2468Z" fill="#9DB5CD"/>
<path d="M17.3517 37.1429H14.6379V38.5282H17.3517V37.1429Z" fill="#9DB5CD"/>
<path d="M17.3517 29.0043V37.1428H14.6379V31.8614H11.513V37.1428H8.79919V29.0043H17.3517Z" fill="#9DB5CD"/>
<path d="M16.9406 20V22.8571C16.9406 23.6364 16.3649 24.2424 15.5426 24.2424C14.8025 24.2424 14.2268 23.6364 14.2268 22.8571V20C14.2268 19.2208 14.8025 18.5281 15.5426 18.5281C16.3649 18.5281 16.9406 19.2208 16.9406 20Z" fill="#9DB5CD"/>
<path d="M16.9406 9.95666V12.8138C16.9406 13.593 16.3649 14.2857 15.5426 14.2857C14.8025 14.2857 14.2268 13.6796 14.2268 12.8138V9.95666C14.2268 9.17744 14.8025 8.4848 15.5426 8.4848C16.3649 8.57138 16.9406 9.17744 16.9406 9.95666Z" fill="#9DB5CD"/>
<path d="M11.513 37.1429H8.79919V38.5282H11.513V37.1429Z" fill="#9DB5CD"/>
<path d="M11.513 20V22.8571C11.513 23.6364 10.9373 24.2424 10.115 24.2424C9.29261 24.2424 8.79919 23.6364 8.79919 22.8571V20C8.79919 19.2208 9.37484 18.5281 10.115 18.5281C10.8551 18.5281 11.513 19.2208 11.513 20Z" fill="#9DB5CD"/>
<path d="M11.513 9.95666V12.8138C11.513 13.593 10.9373 14.2857 10.115 14.2857C9.29261 14.2857 8.79919 13.593 8.79919 12.8138V9.95666C8.79919 9.17744 9.37484 8.4848 10.115 8.4848C10.8551 8.4848 11.513 9.17744 11.513 9.95666Z" fill="#9DB5CD"/>
<path d="M14.6379 38.5281H17.3517V37.0563H21.0523H23.7661H34.6212H37.3349C38.075 37.0563 38.6507 37.6623 38.6507 38.5281C38.6507 39.3939 38.075 40 37.3349 40H1.31577C0.575649 40 0 39.3939 0 38.5281C0 37.6623 0.575649 37.0563 1.31577 37.0563H1.97365H4.68742H8.7992V38.5281H11.513V37.0563H14.6379V38.5281Z" fill="#9DB5CD"/>
</g>
</svg>
