<svg width="14" height="14" viewBox="0 0 14 14" fill="none" xmlns="http://www.w3.org/2000/svg">
<path d="M11.7743 2.63119C12.0543 2.63119 12.2853 2.67785 12.4673 2.77119C12.6493 2.86452 12.794 2.98119 12.9013 3.12119C13.0087 3.26119 13.0833 3.41285 13.1253 3.57619C13.1673 3.73952 13.1883 3.89119 13.1883 4.03119C13.1883 4.09652 13.186 4.14785 13.1813 4.18519C13.1767 4.22252 13.1743 4.25519 13.1743 4.28319V4.36719H12.2503V11.7172C12.2503 11.9039 12.213 12.0835 12.1383 12.2562C12.0637 12.4289 11.9563 12.5805 11.8163 12.7112C11.6763 12.8419 11.506 12.9469 11.3053 13.0262C11.1047 13.1055 10.8737 13.1452 10.6123 13.1452H4.36833C4.12566 13.1452 3.89699 13.1079 3.68233 13.0332C3.46766 12.9585 3.28333 12.8535 3.12933 12.7182C2.97533 12.5829 2.85399 12.4195 2.76533 12.2282C2.67666 12.0369 2.63233 11.8199 2.63233 11.5772V4.36719H1.76433C1.75499 4.35785 1.75033 4.33452 1.75033 4.29719C1.74099 4.25052 1.73633 4.10585 1.73633 3.86319C1.73633 3.74185 1.76433 3.60652 1.82033 3.45719C1.87633 3.30785 1.96033 3.17019 2.07233 3.04419C2.18433 2.91819 2.32899 2.81319 2.50633 2.72919C2.68366 2.64519 2.89366 2.60319 3.13633 2.60319H4.38233V1.74919C4.38233 1.50652 4.46633 1.29885 4.63433 1.12619C4.80233 0.953521 5.00766 0.867188 5.25033 0.867188H9.63233C9.95899 0.867188 10.1853 0.953521 10.3113 1.12619C10.4373 1.29885 10.5003 1.50652 10.5003 1.74919V2.61719C10.6963 2.62652 10.9063 2.63119 11.1303 2.63119H11.7743V2.63119ZM5.25033 2.63119H9.63233V1.74919H5.25033V2.63119V2.63119ZM4.81633 11.4932C5.11499 11.4932 5.26433 11.3019 5.26433 10.9192V4.42319H4.39633V10.9192C4.39633 11.1152 4.42666 11.2599 4.48733 11.3532C4.54799 11.4465 4.65766 11.4932 4.81633 11.4932V11.4932ZM7.46233 11.4792C7.62099 11.4792 7.72833 11.4349 7.78433 11.3462C7.84033 11.2575 7.86833 11.1152 7.86833 10.9192V4.42319H7.00033V10.9192C7.00033 11.2925 7.15433 11.4792 7.46233 11.4792V11.4792ZM10.0943 11.4512C10.2623 11.4512 10.3743 11.4069 10.4303 11.3182C10.4863 11.2295 10.5143 11.0872 10.5143 10.8912V4.42319H9.63233V10.8912C9.63233 11.2645 9.78633 11.4512 10.0943 11.4512V11.4512Z" fill="black"/>
</svg>
