<svg width="14" height="14" viewBox="0 0 14 14" fill="none" xmlns="http://www.w3.org/2000/svg">
<path d="M6.4 2C6.4 1.66863 6.66863 1.4 7 1.4C7.33137 1.4 7.6 1.66863 7.6 2H6.4ZM7.42426 12.4243C7.18995 12.6586 6.81005 12.6586 6.57574 12.4243L2.75736 8.60589C2.52304 8.37157 2.52304 7.99167 2.75736 7.75736C2.99167 7.52304 3.37157 7.52304 3.60589 7.75736L7 11.1515L10.3941 7.75736C10.6284 7.52304 11.0083 7.52304 11.2426 7.75736C11.477 7.99167 11.477 8.37157 11.2426 8.60589L7.42426 12.4243ZM7.6 2L7.6 12H6.4L6.4 2H7.6Z" fill="#FFA629"/>
<line x1="2.5" y1="1.5" x2="11.5" y2="1.5" stroke="black" stroke-linecap="round"/>
</svg>
