<svg width="36" height="36" viewBox="0 0 36 36" fill="none" xmlns="http://www.w3.org/2000/svg">
<path d="M4.55378 29.2746H30.9974C32.0867 29.2276 32.9796 29.774 32.9787 30.7828V30.9534C33.0121 32.0482 32.1084 32.6138 30.9974 32.5699H4.55378C3.23359 32.5699 2.64338 32.1589 2.57227 30.9967V30.8261C2.62172 29.6535 3.32207 29.2348 4.55378 29.2746ZM31.635 11.8565L21.0618 2.71067C20.9722 2.63745 20.8637 2.59106 20.7488 2.57689C20.634 2.56271 20.5175 2.58131 20.4127 2.63055C20.308 2.67974 20.2194 2.75752 20.1569 2.85494C20.0945 2.95235 20.0609 3.06542 20.06 3.18111V8.32458C20.0551 8.63997 19.8085 8.86507 19.5002 8.93208C6.30944 11.8002 4.21168 22.6985 4.14243 26.6253C4.13738 26.9109 4.33802 27.1591 4.61577 27.2244C4.89358 27.2896 5.17986 27.1548 5.30625 26.8988C8.03161 21.2828 12.2633 15.2765 19.4177 15.8685C19.5854 15.8823 19.7494 15.925 19.8705 16.0419C19.9918 16.1589 20.0602 16.3202 20.06 16.4886V21.511C20.0597 21.6272 20.0924 21.7412 20.1544 21.8395C20.2163 21.9379 20.3049 22.0166 20.4098 22.0666C20.5148 22.1166 20.6318 22.1358 20.7472 22.1219C20.8626 22.108 20.9717 22.0616 21.0618 21.988L31.635 12.7881C31.7012 12.7299 31.7543 12.6583 31.7907 12.578C31.827 12.4976 31.8458 12.4105 31.8459 12.3223C31.8459 12.1439 31.769 11.9741 31.635 11.8565Z" fill="#AD7878"/>
</svg>
