<svg width="18" height="18" viewBox="0 0 18 18" fill="none" xmlns="http://www.w3.org/2000/svg">
<path d="M14.7857 4.98214V13.1786C14.7857 13.6616 14.5825 14.1249 14.2208 14.4665C13.8592 14.8081 13.3686 15 12.8571 15H5.14286C4.63137 15 4.14083 14.8081 3.77915 14.4665C3.41747 14.1249 3.21429 13.6616 3.21429 13.1786V4.98214H2.25V4.07143H5.14286V3.16071C5.14286 2.91918 5.24445 2.68753 5.42529 2.51674C5.60613 2.34595 5.8514 2.25 6.10714 2.25H11.8929C12.1486 2.25 12.3939 2.34595 12.5747 2.51674C12.7555 2.68753 12.8571 2.91918 12.8571 3.16071V4.07143H15.75V4.98214H14.7857ZM11.8929 3.16071H6.10714V4.07143H11.8929V3.16071ZM13.8214 4.98214H4.17857V13.1786C4.17857 13.4201 4.28017 13.6518 4.461 13.8225C4.64184 13.9933 4.88711 14.0893 5.14286 14.0893H12.8571C13.1129 14.0893 13.3582 13.9933 13.539 13.8225C13.7198 13.6518 13.8214 13.4201 13.8214 13.1786V4.98214ZM9.96429 6.80357H10.9286V12.2679H9.96429V6.80357ZM7.07143 6.80357H8.03571V12.2679H7.07143V6.80357Z" fill="black"/>
</svg>
